<?plantuml 1.2026.2?><svg xmlns="http://www.w3.org/2000/svg" xmlns:xlink="http://www.w3.org/1999/xlink" contentStyleType="text/css" data-diagram-type="DESCRIPTION" height="235px" preserveAspectRatio="none" style="width:1794px;height:235px;background:#FFFFFF;" version="1.1" viewBox="0 0 1794 235" width="1794px" zoomAndPan="magnify"><title>Ringmaster: shared deploy pipeline (Survey &#8594; Build &#8594; Install)</title><defs/><g><g class="title" data-source-line="14"><text fill="#000000" font-family="sans-serif" font-size="14" font-weight="bold" lengthAdjust="spacing" textLength="486.7256" x="647.0356" y="22.9951">Ringmaster: shared deploy pipeline (Survey &#8594; Build &#8594; Install)</text></g><!--entity registry--><g class="entity" data-qualified-name="registry" data-source-line="27" id="ent0002"><rect fill="#F0F0F0" height="52.5938" rx="3" ry="3" style="stroke:#888888;stroke-width:0.5;" width="77.9414" x="27" y="72.7969"/><text fill="#000000" font-family="sans-serif" font-size="14" font-style="italic" lengthAdjust="spacing" textLength="53.293" x="39.3242" y="95.792">&#171;input&#187;</text><text fill="#000000" font-family="sans-serif" font-size="14" lengthAdjust="spacing" textLength="57.9414" x="37" y="112.0889">Registry</text></g><!--entity clone--><g class="entity" data-qualified-name="clone" data-source-line="29" id="ent0004"><rect fill="#E8F4F8" height="68.8906" rx="3" ry="3" style="stroke:#4A90A4;stroke-width:0.5;" width="117.583" x="7" y="160.7969"/><text fill="#000000" font-family="sans-serif" font-size="14" font-style="italic" lengthAdjust="spacing" textLength="67.6895" x="31.9468" y="183.792">&#171;artifact&#187;</text><text fill="#000000" font-family="sans-serif" font-size="14" lengthAdjust="spacing" textLength="97.583" x="17" y="200.0889">Session Clone</text><text fill="#000000" font-family="sans-serif" font-size="14" lengthAdjust="spacing" textLength="37.6045" x="17" y="216.3857">(0..n)</text></g><!--entity artifact--><g class="entity" data-qualified-name="artifact" data-source-line="31" id="ent0006"><rect fill="#E8F4F8" height="52.5938" rx="3" ry="3" style="stroke:#4A90A4;stroke-width:0.5;" width="89.6895" x="864" y="69.7969"/><text fill="#000000" font-family="sans-serif" font-size="14" font-style="italic" lengthAdjust="spacing" textLength="67.6895" x="875" y="92.792">&#171;artifact&#187;</text><text fill="#000000" font-family="sans-serif" font-size="14" lengthAdjust="spacing" textLength="51.4063" x="883.1416" y="109.0889">Artifact</text></g><!--entity uv--><g class="entity" data-qualified-name="uv" data-source-line="35" id="ent0010"><rect fill="#F0F0F0" height="52.5938" rx="3" ry="3" style="stroke:#888888;stroke-width:0.5;" width="97.3799" x="1592.5" y="133.7969"/><text fill="#000000" font-family="sans-serif" font-size="14" font-style="italic" lengthAdjust="spacing" textLength="75.3799" x="1603.5" y="156.792">&#171;external&#187;</text><text fill="#000000" font-family="sans-serif" font-size="14" lengthAdjust="spacing" textLength="48.1182" x="1617.1309" y="173.0889">uv tool</text></g><!--entity survey--><g class="entity" data-qualified-name="survey" data-source-line="18" id="ent0012"><rect fill="#D0E6F0" height="52.5938" rx="3" ry="3" style="stroke:#2A6A85;stroke-width:0.5;" width="81.5273" x="267" y="120.7969"/><text fill="#000000" font-family="sans-serif" font-size="14" font-style="italic" lengthAdjust="spacing" textLength="59.5273" x="278" y="143.792">&#171;phase&#187;</text><text fill="#000000" font-family="sans-serif" font-size="14" lengthAdjust="spacing" textLength="48.6992" x="283.4141" y="160.0889">Survey</text></g><!--entity manifest--><g class="entity" data-qualified-name="manifest" data-source-line="19" id="ent0013"><rect fill="#E8F4F8" height="52.5938" rx="3" ry="3" style="stroke:#4A90A4;stroke-width:0.5;" width="89.6895" x="470" y="120.7969"/><text fill="#000000" font-family="sans-serif" font-size="14" font-style="italic" lengthAdjust="spacing" textLength="67.6895" x="481" y="143.792">&#171;artifact&#187;</text><text fill="#000000" font-family="sans-serif" font-size="14" lengthAdjust="spacing" textLength="59.7461" x="484.9717" y="160.0889">Manifest</text></g><!--entity build--><g class="entity" data-qualified-name="build" data-source-line="20" id="ent0014"><rect fill="#D0E6F0" height="52.5938" rx="3" ry="3" style="stroke:#2A6A85;stroke-width:0.5;" width="81.5273" x="661" y="120.7969"/><text fill="#000000" font-family="sans-serif" font-size="14" font-style="italic" lengthAdjust="spacing" textLength="59.5273" x="672" y="143.792">&#171;phase&#187;</text><text fill="#000000" font-family="sans-serif" font-size="14" lengthAdjust="spacing" textLength="35.1436" x="684.1919" y="160.0889">Build</text></g><!--entity install--><g class="entity" data-qualified-name="install" data-source-line="21" id="ent0015"><rect fill="#D0E6F0" height="52.5938" rx="3" ry="3" style="stroke:#2A6A85;stroke-width:0.5;" width="81.5273" x="1147" y="69.7969"/><text fill="#000000" font-family="sans-serif" font-size="14" font-style="italic" lengthAdjust="spacing" textLength="59.5273" x="1158" y="92.792">&#171;phase&#187;</text><text fill="#000000" font-family="sans-serif" font-size="14" lengthAdjust="spacing" textLength="42.1436" x="1166.6919" y="109.0889">Install</text></g><g class="entity" data-qualified-name="GMN24" data-source-line="34" id="ent0025"><path d="M1494,46.2969 L1494,80.5625 A3,3 0 0 0 1497,83.5625 L1784.7969,83.5625 A3,3 0 0 0 1787.7969,80.5625 L1787.7969,53.2969 L1777.7969,43.2969 L1497,43.2969 A3,3 0 0 0 1494,46.2969" fill="#FEFFDD" style="stroke:#181818;stroke-width:0.5;"/><path d="M1777.7969,43.2969 L1777.7969,51.7969 A1.5,1.5 0 0 0 1779.2969,53.2969 L1787.7969,53.2969 L1777.7969,43.2969" fill="#FEFFDD" style="stroke:#181818;stroke-width:1;"/><text fill="#000000" font-family="sans-serif" font-size="13" lengthAdjust="spacing" textLength="272.7969" x="1500" y="60.3638">produces a Host or Rehearsal Installation:</text><text fill="#000000" font-family="sans-serif" font-size="13" lengthAdjust="spacing" textLength="256.9214" x="1500" y="75.4966">see the Deploy and Rehearse diagrams</text></g><!--link registry to survey--><g class="link" data-entity-1="ent0002" data-entity-2="ent0012" data-link-type="dependency" data-source-line="23" id="lnk16"><path d="M105.03,106.9069 C149.18,115.7369 215.7866,129.0497 260.8666,138.0697" fill="none" id="registry-to-survey" style="stroke:#181818;stroke-width:1;"/><polygon fill="#181818" points="266.75,139.2469,258.7097,133.5588,261.8472,138.2659,257.1401,141.4033,266.75,139.2469" style="stroke:#181818;stroke-width:1;"/><text fill="#000000" font-family="sans-serif" font-size="13" lengthAdjust="spacing" textLength="46.4648" x="173" y="113.3638">[repos]</text></g><!--link clone to survey--><g class="link" data-entity-1="ent0004" data-entity-2="ent0012" data-link-type="dependency" data-source-line="24" id="lnk17"><path d="M125.1,183.6769 C168.94,174.9069 222.0665,164.2833 260.8265,156.5333" fill="none" id="clone-to-survey" style="stroke:#181818;stroke-width:1;"/><polygon fill="#181818" points="266.71,155.3569,257.1004,153.1991,261.807,156.3372,258.669,161.0438,266.71,155.3569" style="stroke:#181818;stroke-width:1;"/><text fill="#000000" font-family="sans-serif" font-size="13" lengthAdjust="spacing" textLength="80.7168" x="156" y="157.3638">Contribution</text></g><!--link survey to manifest--><g class="link" data-entity-1="ent0012" data-entity-2="ent0013" data-link-type="dependency" data-source-line="26" id="lnk18"><path d="M349.01,147.2969 C383.74,147.2969 427.93,147.2969 463.82,147.2969" fill="none" id="survey-to-manifest" style="stroke:#181818;stroke-width:1;"/><polygon fill="#181818" points="469.82,147.2969,460.82,143.2969,464.82,147.2969,460.82,151.2969,469.82,147.2969" style="stroke:#181818;stroke-width:1;"/><text fill="#000000" font-family="sans-serif" font-size="13" lengthAdjust="spacing" textLength="59.96" x="380" y="143.3638">produces</text></g><!--link manifest to build--><g class="link" data-entity-1="ent0013" data-entity-2="ent0014" data-link-type="dependency" data-source-line="27" id="lnk19"><path d="M560.31,147.2969 C590.88,147.2969 625.2,147.2969 654.83,147.2969" fill="none" id="manifest-to-build" style="stroke:#181818;stroke-width:1;"/><polygon fill="#181818" points="660.83,147.2969,651.83,143.2969,655.83,147.2969,651.83,151.2969,660.83,147.2969" style="stroke:#181818;stroke-width:1;"/><text fill="#000000" font-family="sans-serif" font-size="13" lengthAdjust="spacing" textLength="39.6729" x="591" y="143.3638">drives</text></g><!--link build to uv--><g class="link" data-entity-1="ent0014" data-entity-2="ent0010" data-link-type="dependency" data-source-line="28" id="lnk20"><path d="M743.26,147.8569 C894.59,149.9569 1422.9506,157.2835 1586.2506,159.5535" fill="none" id="build-to-uv" style="stroke:#181818;stroke-width:1;"/><polygon fill="#181818" points="1592.25,159.6369,1583.3065,155.5122,1587.2505,159.5674,1583.1953,163.5114,1592.25,159.6369" style="stroke:#181818;stroke-width:1;"/><text fill="#000000" font-family="sans-serif" font-size="13" lengthAdjust="spacing" textLength="131.1489" x="985" y="147.3638">build carried wheels</text></g><!--link build to artifact--><g class="link" data-entity-1="ent0014" data-entity-2="ent0006" data-link-type="dependency" data-source-line="29" id="lnk21"><path d="M743.01,137.3469 C777.74,128.7069 822.1075,117.6656 857.9975,108.7356" fill="none" id="build-to-artifact" style="stroke:#181818;stroke-width:1;"/><polygon fill="#181818" points="863.82,107.2869,854.1205,105.5783,858.9679,108.4941,856.0521,113.3416,863.82,107.2869" style="stroke:#181818;stroke-width:1;"/><text fill="#000000" font-family="sans-serif" font-size="13" lengthAdjust="spacing" textLength="59.96" x="774" y="111.3638">produces</text></g><!--link artifact to install--><g class="link" data-entity-1="ent0006" data-entity-2="ent0015" data-link-type="dependency" data-source-line="31" id="lnk22"><path d="M954.2,96.2969 C1007.2,96.2969 1089.29,96.2969 1140.56,96.2969" fill="none" id="artifact-to-install" style="stroke:#181818;stroke-width:1;"/><polygon fill="#181818" points="1146.56,96.2969,1137.56,92.2969,1141.56,96.2969,1137.56,100.2969,1146.56,96.2969" style="stroke:#181818;stroke-width:1;"/><text fill="#000000" font-family="sans-serif" font-size="13" lengthAdjust="spacing" textLength="63.3052" x="1019" y="92.3638">placed by</text></g><!--link install to uv--><g class="link" data-entity-1="ent0015" data-entity-2="ent0010" data-link-type="dependency" data-source-line="32" id="lnk23"><path d="M1229.02,115.2969 C1238.65,119.1869 1249.04,122.8369 1259,125.2969 C1376.36,154.2869 1513.4203,159.6868 1586.3203,160.4168" fill="none" id="install-to-uv" style="stroke:#181818;stroke-width:1;"/><polygon fill="#181818" points="1592.32,160.4769,1583.3605,156.387,1587.3203,160.4268,1583.2804,164.3866,1592.32,160.4769" style="stroke:#181818;stroke-width:1;"/><text fill="#000000" font-family="sans-serif" font-size="13" lengthAdjust="spacing" textLength="38.9111" x="1332.3474" y="106.3638">install</text><text fill="#000000" font-family="monospace" font-size="13" lengthAdjust="spacing" textLength="15.6533" x="1375.3909" y="106.3638">vv</text><text fill="#000000" font-family="sans-serif" font-size="13" lengthAdjust="spacing" textLength="203.3916" x="1260" y="121.4966">(carried wheels + public index)</text></g><!--link install to GMN24--><g class="link" data-entity-1="ent0015" data-entity-2="ent0025" data-link-type="association" data-source-line="34" id="lnk26"><path d="M1229.26,89.2769 C1238.97,87.7769 1249.34,86.3369 1259,85.2969 C1336.24,77.0169 1422.65,71.7069 1493.63,68.3869" fill="none" id="install-GMN24" style="stroke:#181818;stroke-width:1;stroke-dasharray:7,7;"/></g><?plantuml-src TLHHRXCn5FptAHxxqrOqEK2eAg18K0aar08_b8-NzTkigMCljZTfBi01E28dORphtQO8edoixF7C-BrvFg5FhL1dEh762Tr8AnoY43jDRwIp_a2nvI3df0Fl7NbN2qLFJang9L37gILjU1DugqueI2US8fcqfDi-xEH0fq5OBxopXpDi_-XDa4Z2TKkt4gFnZgwiTn3OixtF9wdn0LG6D5VUfM3MVGBiVF3KUAiZGNfBnYLFJ3ksHdCIJH_OcKPYMkLzYiPjh80eceJxKEqjW5YaHhG4pfna8Znzbnh7b_IwDrPdMi5jaWmoC-cWZWKGpgvyG2dwK0DQp4InpQB6FgEQcbw5P1gk4vrczK666cE1xsmV2zqigEdg_JNL78B1DsVIcDXQNbkXVIjYupdiHcztmn9lE2D0u-C405ysslLhQshwUFXuJPpBUxQawv4DqboNoyt-67_qEoRZXi8iXrYalGUVxqgr8XhTD6XwRYRCWGBdZawTvsIa5aMDNKuJFd8-5hnn7g3w1TYoxBzILZ8KivoZ9lXjZa86nDRlHqcSDL17355VkrJgcN6rxRMGMDcAIt7PzLkhL389zRb1ixSSauJL669DUXIRytvQGlhxvw_I_lnLAdMcb9K6zVKKpAPDy1ZGGrnKgVp1EM1KZHGLuOUUnP6GwEAYQpdAvUKnTafJDM2tKxOkBhXquYbyi3GmP_XwCFW_wcAw6h4bEiTOW3Scfd2WnUBoqUUAgkehvjR7RrMbwXoMhF4NvdWIbPetCcg-nOgwu7MFSAbvBGDctoiy8cQ7xNabR_Sx6d-hWfmce2Jw2NYgqx6OcXSpOhxvQaowflL1pOj_2KxhLRNRLTMTEtsgJS-dIJ9EomC2uJmUap4DlfcFFvh16Br3rWbFGqavsobFmuoixbmK6SQW93zdV9w8QGmKHkLDy1rzVZ-76-cjxH1ZpDwJnADmYM0DhmFcKro-DLvdAGCfmykC6-Ipjr_UbWf7785HvCFHsZz8N28YMxyJUjaxZCUzQFK7?></g></svg>