<?plantuml 1.2026.2?><svg xmlns="http://www.w3.org/2000/svg" xmlns:xlink="http://www.w3.org/1999/xlink" contentStyleType="text/css" data-diagram-type="DESCRIPTION" height="235px" preserveAspectRatio="none" style="width:1778px;height:235px;background:#FFFFFF;" version="1.1" viewBox="0 0 1778 235" width="1778px" zoomAndPan="magnify"><title>Ringmaster &#8212; shared deploy pipeline (Assemble &#8594; Build &#8594; Install)</title><defs/><g><g class="title" data-source-line="14"><text fill="#000000" font-family="sans-serif" font-size="14" font-weight="bold" lengthAdjust="spacing" textLength="521.1992" x="621.7861" y="22.9951">Ringmaster &#8212; shared deploy pipeline (Assemble &#8594; Build &#8594; Install)</text></g><!--entity registry--><g class="entity" data-qualified-name="registry" data-source-line="27" id="ent0002"><rect fill="#F0F0F0" height="52.5938" rx="3" ry="3" style="stroke:#888888;stroke-width:0.5;" width="77.9414" x="27" y="72.7969"/><text fill="#000000" font-family="sans-serif" font-size="14" font-style="italic" lengthAdjust="spacing" textLength="53.293" x="39.3242" y="95.792">&#171;input&#187;</text><text fill="#000000" font-family="sans-serif" font-size="14" lengthAdjust="spacing" textLength="57.9414" x="37" y="112.0889">Registry</text></g><!--entity clone--><g class="entity" data-qualified-name="clone" data-source-line="29" id="ent0004"><rect fill="#E8F4F8" height="68.8906" rx="3" ry="3" style="stroke:#4A90A4;stroke-width:0.5;" width="117.583" x="7" y="160.7969"/><text fill="#000000" font-family="sans-serif" font-size="14" font-style="italic" lengthAdjust="spacing" textLength="67.6895" x="31.9468" y="183.792">&#171;artifact&#187;</text><text fill="#000000" font-family="sans-serif" font-size="14" lengthAdjust="spacing" textLength="97.583" x="17" y="200.0889">Session Clone</text><text fill="#000000" font-family="sans-serif" font-size="14" lengthAdjust="spacing" textLength="37.6045" x="17" y="216.3857">(0..n)</text></g><!--entity artifact--><g class="entity" data-qualified-name="artifact" data-source-line="31" id="ent0006"><rect fill="#E8F4F8" height="52.5938" rx="3" ry="3" style="stroke:#4A90A4;stroke-width:0.5;" width="89.6895" x="874" y="69.7969"/><text fill="#000000" font-family="sans-serif" font-size="14" font-style="italic" lengthAdjust="spacing" textLength="67.6895" x="885" y="92.792">&#171;artifact&#187;</text><text fill="#000000" font-family="sans-serif" font-size="14" lengthAdjust="spacing" textLength="51.4063" x="893.1416" y="109.0889">Artifact</text></g><!--entity uv--><g class="entity" data-qualified-name="uv" data-source-line="35" id="ent0010"><rect fill="#F0F0F0" height="52.5938" rx="3" ry="3" style="stroke:#888888;stroke-width:0.5;" width="97.3799" x="1589.5" y="133.7969"/><text fill="#000000" font-family="sans-serif" font-size="14" font-style="italic" lengthAdjust="spacing" textLength="75.3799" x="1600.5" y="156.792">&#171;external&#187;</text><text fill="#000000" font-family="sans-serif" font-size="14" lengthAdjust="spacing" textLength="48.1182" x="1614.1309" y="173.0889">uv tool</text></g><!--entity assemble--><g class="entity" data-qualified-name="assemble" data-source-line="18" id="ent0012"><rect fill="#D0E6F0" height="52.5938" rx="3" ry="3" style="stroke:#2A6A85;stroke-width:0.5;" width="87.8057" x="267" y="120.7969"/><text fill="#000000" font-family="sans-serif" font-size="14" font-style="italic" lengthAdjust="spacing" textLength="59.5273" x="281.1392" y="143.792">&#171;phase&#187;</text><text fill="#000000" font-family="sans-serif" font-size="14" lengthAdjust="spacing" textLength="67.8057" x="277" y="160.0889">Assemble</text></g><!--entity plan--><g class="entity" data-qualified-name="plan" data-source-line="19" id="ent0013"><rect fill="#E8F4F8" height="52.5938" rx="3" ry="3" style="stroke:#4A90A4;stroke-width:0.5;" width="93.7598" x="476" y="120.7969"/><text fill="#000000" font-family="sans-serif" font-size="14" font-style="italic" lengthAdjust="spacing" textLength="67.6895" x="489.0352" y="143.792">&#171;artifact&#187;</text><text fill="#000000" font-family="sans-serif" font-size="14" lengthAdjust="spacing" textLength="73.7598" x="486" y="160.0889">Apply Plan</text></g><!--entity build--><g class="entity" data-qualified-name="build" data-source-line="20" id="ent0014"><rect fill="#D0E6F0" height="52.5938" rx="3" ry="3" style="stroke:#2A6A85;stroke-width:0.5;" width="81.5273" x="671" y="120.7969"/><text fill="#000000" font-family="sans-serif" font-size="14" font-style="italic" lengthAdjust="spacing" textLength="59.5273" x="682" y="143.792">&#171;phase&#187;</text><text fill="#000000" font-family="sans-serif" font-size="14" lengthAdjust="spacing" textLength="35.1436" x="694.1919" y="160.0889">Build</text></g><!--entity install--><g class="entity" data-qualified-name="install" data-source-line="21" id="ent0015"><rect fill="#D0E6F0" height="52.5938" rx="3" ry="3" style="stroke:#2A6A85;stroke-width:0.5;" width="81.5273" x="1157" y="69.7969"/><text fill="#000000" font-family="sans-serif" font-size="14" font-style="italic" lengthAdjust="spacing" textLength="59.5273" x="1168" y="92.792">&#171;phase&#187;</text><text fill="#000000" font-family="sans-serif" font-size="14" lengthAdjust="spacing" textLength="42.1436" x="1176.6919" y="109.0889">Install</text></g><g class="entity" data-qualified-name="GMN24" data-source-line="34" id="ent0025"><path d="M1504,46.2969 L1504,80.5625 A3,3 0 0 0 1507,83.5625 L1768.7715,83.5625 A3,3 0 0 0 1771.7715,80.5625 L1771.7715,53.2969 L1761.7715,43.2969 L1507,43.2969 A3,3 0 0 0 1504,46.2969" fill="#FEFFDD" style="stroke:#181818;stroke-width:0.5;"/><path d="M1761.7715,43.2969 L1761.7715,51.7969 A1.5,1.5 0 0 0 1763.2715,53.2969 L1771.7715,53.2969 L1761.7715,43.2969" fill="#FEFFDD" style="stroke:#181818;stroke-width:1;"/><text fill="#000000" font-family="sans-serif" font-size="13" lengthAdjust="spacing" textLength="246.7715" x="1510" y="60.3638">produces a Host or Staged Scaffold &#8212;</text><text fill="#000000" font-family="sans-serif" font-size="13" lengthAdjust="spacing" textLength="224.3198" x="1510" y="75.4966">see the Apply and Stage diagrams</text></g><!--link registry to assemble--><g class="link" data-entity-1="ent0002" data-entity-2="ent0012" data-link-type="dependency" data-source-line="23" id="lnk16"><path d="M105.24,106.8469 C149.08,115.5069 214.8937,128.5145 260.7737,137.5745" fill="none" id="registry-to-assemble" style="stroke:#181818;stroke-width:1;"/><polygon fill="#181818" points="266.66,138.7369,258.6054,133.0691,261.7547,137.7682,257.0556,140.9175,266.66,138.7369" style="stroke:#181818;stroke-width:1;"/><text fill="#000000" font-family="sans-serif" font-size="13" lengthAdjust="spacing" textLength="46.4648" x="173" y="113.3638">[repos]</text></g><!--link clone to assemble--><g class="link" data-entity-1="ent0004" data-entity-2="ent0012" data-link-type="dependency" data-source-line="24" id="lnk17"><path d="M125.2,183.7969 C168.73,175.1969 221.4037,164.7995 260.8437,157.0095" fill="none" id="clone-to-assemble" style="stroke:#181818;stroke-width:1;"/><polygon fill="#181818" points="266.73,155.8469,257.1255,153.6666,261.8248,156.8157,258.6757,161.515,266.73,155.8469" style="stroke:#181818;stroke-width:1;"/><text fill="#000000" font-family="sans-serif" font-size="13" lengthAdjust="spacing" textLength="80.7168" x="156" y="158.3638">Contribution</text></g><!--link assemble to plan--><g class="link" data-entity-1="ent0012" data-entity-2="ent0013" data-link-type="dependency" data-source-line="26" id="lnk18"><path d="M355,147.2969 C390.16,147.2969 433.77,147.2969 469.78,147.2969" fill="none" id="assemble-to-plan" style="stroke:#181818;stroke-width:1;"/><polygon fill="#181818" points="475.78,147.2969,466.78,143.2969,470.78,147.2969,466.78,151.2969,475.78,147.2969" style="stroke:#181818;stroke-width:1;"/><text fill="#000000" font-family="sans-serif" font-size="13" lengthAdjust="spacing" textLength="59.96" x="386" y="143.3638">produces</text></g><!--link plan to build--><g class="link" data-entity-1="ent0013" data-entity-2="ent0014" data-link-type="dependency" data-source-line="27" id="lnk19"><path d="M570.22,147.2969 C601.05,147.2969 635.18,147.2969 664.7,147.2969" fill="none" id="plan-to-build" style="stroke:#181818;stroke-width:1;"/><polygon fill="#181818" points="670.7,147.2969,661.7,143.2969,665.7,147.2969,661.7,151.2969,670.7,147.2969" style="stroke:#181818;stroke-width:1;"/><text fill="#000000" font-family="sans-serif" font-size="13" lengthAdjust="spacing" textLength="39.6729" x="601" y="143.3638">drives</text></g><!--link build to uv--><g class="link" data-entity-1="ent0014" data-entity-2="ent0010" data-link-type="dependency" data-source-line="28" id="lnk20"><path d="M753.3,147.8669 C903.18,149.9769 1422.0906,157.2725 1583.4506,159.5425" fill="none" id="build-to-uv" style="stroke:#181818;stroke-width:1;"/><polygon fill="#181818" points="1589.45,159.6269,1580.5072,155.5007,1584.4505,159.5565,1580.3946,163.4999,1589.45,159.6269" style="stroke:#181818;stroke-width:1;"/><text fill="#000000" font-family="sans-serif" font-size="13" lengthAdjust="spacing" textLength="131.1489" x="995" y="147.3638">build carried wheels</text></g><!--link build to artifact--><g class="link" data-entity-1="ent0014" data-entity-2="ent0006" data-link-type="dependency" data-source-line="29" id="lnk21"><path d="M753.01,137.3469 C787.74,128.7069 832.1075,117.6656 867.9975,108.7356" fill="none" id="build-to-artifact" style="stroke:#181818;stroke-width:1;"/><polygon fill="#181818" points="873.82,107.2869,864.1205,105.5783,868.9679,108.4941,866.0521,113.3416,873.82,107.2869" style="stroke:#181818;stroke-width:1;"/><text fill="#000000" font-family="sans-serif" font-size="13" lengthAdjust="spacing" textLength="59.96" x="784" y="111.3638">produces</text></g><!--link artifact to install--><g class="link" data-entity-1="ent0006" data-entity-2="ent0015" data-link-type="dependency" data-source-line="31" id="lnk22"><path d="M964.2,96.2969 C1017.2,96.2969 1099.29,96.2969 1150.56,96.2969" fill="none" id="artifact-to-install" style="stroke:#181818;stroke-width:1;"/><polygon fill="#181818" points="1156.56,96.2969,1147.56,92.2969,1151.56,96.2969,1147.56,100.2969,1156.56,96.2969" style="stroke:#181818;stroke-width:1;"/><text fill="#000000" font-family="sans-serif" font-size="13" lengthAdjust="spacing" textLength="63.3052" x="1029" y="92.3638">placed by</text></g><!--link install to uv--><g class="link" data-entity-1="ent0015" data-entity-2="ent0010" data-link-type="dependency" data-source-line="32" id="lnk23"><path d="M1239.02,115.2669 C1248.66,119.1569 1259.04,122.8169 1269,125.2969 C1381.57,153.2969 1512.6307,159.118 1583.4807,160.168" fill="none" id="install-to-uv" style="stroke:#181818;stroke-width:1;"/><polygon fill="#181818" points="1589.48,160.2569,1580.5403,156.1239,1584.4805,160.1828,1580.4217,164.1231,1589.48,160.2569" style="stroke:#181818;stroke-width:1;"/><text fill="#000000" font-family="sans-serif" font-size="13" lengthAdjust="spacing" textLength="115.3179" x="1314.0369" y="106.3638">install the Facade</text><text fill="#000000" font-family="sans-serif" font-size="13" lengthAdjust="spacing" textLength="203.3916" x="1270" y="121.4966">(carried wheels + public index)</text></g><!--link install to GMN24--><g class="link" data-entity-1="ent0015" data-entity-2="ent0025" data-link-type="association" data-source-line="34" id="lnk26"><path d="M1239.26,89.2969 C1248.97,87.7869 1259.34,86.3469 1269,85.2969 C1346.63,76.8969 1433.85,71.5069 1503.88,68.1669" fill="none" id="install-GMN24" style="stroke:#181818;stroke-width:1;stroke-dasharray:7,7;"/></g><?plantuml-src RLJBSXGv4BphAug-OCTwvWECmm5hWiKH71nuuR9mg6bLJslHI8sadc5kU-832BwGBzciVjdZmE53JocLbLMLfUVqTolKkKwy2qBtXRT272ozwZf_fDnoaWkoYG-1OgY5SgGWhhIIgEFIadMyJRmppob99rmokRAcLpdBRkE5pfAmNSNWZ-S0VErTaap2TKltahEBWMvy34XnOFz5xr8J4yWSY6vYACbj-WBOnI2gYTvcGl8TkL0YCUtPEyj5Pi5tdWFz-k-dWYYxiFK2jkmAgg8wUg0Hf4Qi95PYSXd2_fKQ76lwitVUAhUWg293hf5Jq-C7o1PPCQ4RVQe1czHaySsgnZcZcP2KYckuBdIccOSKr3WFVEVxFD4joIpTlBkbcbDo-6ObpOMzP-tZeHNn-G9IS_Jx8SHRLWHeOfu1u5EXNR_nhgQxuzqjiVRtV4st8njISpqLjkXZ_DDhoSM5eIdhmHNb4C4NkwbJ6RDk6inTfmbneC2zHxSkr1obHKDpfsR2XrfanTiG0QfVW4tJFZNPPA6igG8rAUxK1tgUstWOq-6UGsQu4BtrQsEUkL3xtWg9bvs4ajTTl_F655VGc_SOyevpWLerms1ZIrOw7uyFRZzRRFhh-uzfzlerjUhS62yD6XmfkMrR83HXYAZK6FrWTHTLCqb5f5FZcVFggcivo_Nr2NXnQQNWJgsbVrTNF0tZ53-8gWQ8uZU3nW7_6_99TpM19_yy1WEzTRca8wrMrmzIBwcg_i7-nlovgaojZb6E9vZ7-sZCSg2efOvBwbAqFHncbfW25k6NU4pS7iTBH8_x_LWYZiVul0QJhK_0SwSU9pDBK15BvPUZtIrjZcO9FaaunzMQRxXcAv_2sMb--cDUAHUiV8CnGiIBCheYDWl5Wo3iqrkOdl1637QtT5zpe--N6l9Jo2BZ2Wv-KA-FMp7lWi6kl4wnem_l5eV3lxKVZ8pbEx4zcbO8al0yO44bQCLueMNQI1bUPoZNk_SV_vgwct450k6DG9luJV8QzjZ5lT3BFc11leWr_mC0?></g></svg>