<?plantuml 1.2026.2?><svg xmlns="http://www.w3.org/2000/svg" xmlns:xlink="http://www.w3.org/1999/xlink" contentStyleType="text/css" data-diagram-type="DESCRIPTION" height="240px" preserveAspectRatio="none" style="width:1018px;height:240px;background:#FFFFFF;" version="1.1" viewBox="0 0 1018 240" width="1018px" zoomAndPan="magnify"><title>Seed-prompt contract &#8212; bobiverse / vaudeville-cue boundary</title><defs/><g><g class="title" data-source-line="9"><text fill="#000000" font-family="sans-serif" font-size="14" font-weight="bold" lengthAdjust="spacing" textLength="484.5586" x="260.1606" y="22.9951">Seed-prompt contract &#8212; bobiverse / vaudeville-cue boundary</text></g><!--cluster vaudeville-bobiverse--><g class="cluster" data-qualified-name="vaudeville-bobiverse" data-source-line="31" id="ent0002"><path d="M9,94.5769 L173.6982,94.5769 A4.5,4.5 0 0 1 176.6982,97.5769 L183.6982,116.8738 L422,116.8738 A3,3 0 0 1 425,119.8738 L425,230.5769 A3,3 0 0 1 422,233.5769 L9,233.5769 A3,3 0 0 1 6,230.5769 L6,97.5769 A3,3 0 0 1 9,94.5769" fill="#F4F4F4" style="stroke:#888888;stroke-width:1.5;"/><line style="stroke:#888888;stroke-width:1.5;" x1="6" x2="183.6982" y1="116.8738" y2="116.8738"/><text fill="#000000" font-family="sans-serif" font-size="14" font-weight="bold" lengthAdjust="spacing" textLength="164.6982" x="10" y="109.572">vaudeville-bobiverse</text></g><!--cluster vaudeville-cue--><g class="cluster" data-qualified-name="vaudeville-cue" data-source-line="36" id="ent0005"><path d="M635,94.5769 L749.6455,94.5769 A4.5,4.5 0 0 1 752.6455,97.5769 L759.6455,116.8738 L893,116.8738 A3,3 0 0 1 896,119.8738 L896,230.5769 A3,3 0 0 1 893,233.5769 L635,233.5769 A3,3 0 0 1 632,230.5769 L632,97.5769 A3,3 0 0 1 635,94.5769" fill="#F4F4F4" style="stroke:#888888;stroke-width:1.5;"/><line style="stroke:#888888;stroke-width:1.5;" x1="632" x2="759.6455" y1="116.8738" y2="116.8738"/><text fill="#000000" font-family="sans-serif" font-size="14" font-weight="bold" lengthAdjust="spacing" textLength="114.6455" x="636" y="109.572">vaudeville-cue</text></g><!--entity spawn--><g class="entity" data-qualified-name="vaudeville-bobiverse.spawn" data-source-line="32" id="ent0003"><rect fill="#D0E6F0" height="52.5938" rx="3" ry="3" style="stroke:#2A6A85;stroke-width:0.5;" width="108.0713" x="22" y="156.5769"/><text fill="#000000" font-family="sans-serif" font-size="14" font-style="italic" lengthAdjust="spacing" textLength="86.0713" x="33" y="179.572">&#171;bobiverse&#187;</text><text fill="#000000" font-family="sans-serif" font-size="14" lengthAdjust="spacing" textLength="49.7998" x="51.1357" y="195.8689">/spawn</text></g><!--entity launcher--><g class="entity" data-qualified-name="vaudeville-bobiverse.launcher" data-source-line="33" id="ent0004"><rect fill="#FAF3E0" height="68.8906" rx="3" ry="3" style="stroke:#B08A3A;stroke-width:0.5;" width="209.9707" x="199" y="148.5769"/><text fill="#000000" font-family="sans-serif" font-size="14" font-style="italic" lengthAdjust="spacing" textLength="67.6895" x="270.1406" y="171.572">&#171;artifact&#187;</text><text fill="#000000" font-family="sans-serif" font-size="14" lengthAdjust="spacing" textLength="65.0645" x="209" y="187.8689">Launcher</text><text fill="#000000" font-family="sans-serif" font-size="14" lengthAdjust="spacing" textLength="189.9707" x="209" y="204.1657">.scratch/launcher-&lt;id&gt;.md</text></g><!--entity downstream--><g class="entity" data-qualified-name="vaudeville-cue.downstream" data-source-line="37" id="ent0006"><rect fill="#E6DFF0" height="68.8906" rx="3" ry="3" style="stroke:#6A4A85;stroke-width:0.5;" width="232.2354" x="648" y="148.5769"/><text fill="#000000" font-family="sans-serif" font-size="14" font-style="italic" lengthAdjust="spacing" textLength="42.4648" x="742.8853" y="171.572">&#171;cue&#187;</text><text fill="#000000" font-family="sans-serif" font-size="14" lengthAdjust="spacing" textLength="160.5146" x="658" y="187.8689">vv assignment-context</text><text fill="#000000" font-family="sans-serif" font-size="14" lengthAdjust="spacing" textLength="212.2354" x="658" y="204.1657">([spawn.downstream] default)</text></g><!--entity workmux--><g class="entity" data-qualified-name="workmux" data-source-line="40" id="ent0007"><rect fill="#F0F0F0" height="52.5938" rx="3" ry="3" style="stroke:#888888;stroke-width:0.5;" width="97.3799" x="915.5" y="156.5769"/><text fill="#000000" font-family="sans-serif" font-size="14" font-style="italic" lengthAdjust="spacing" textLength="75.3799" x="926.5" y="179.572">&#171;external&#187;</text><text fill="#000000" font-family="sans-serif" font-size="14" lengthAdjust="spacing" textLength="64.6748" x="931.8525" y="195.8689">workmux</text></g><!--link spawn to downstream--><g class="link" data-entity-1="ent0003" data-entity-2="ent0006" data-link-type="dependency" data-source-line="42" id="lnk8"><path d="M97.4,156.3769 C116.95,133.9569 147.94,103.0269 182,86.5769 C198.22,78.7469 204.05,81.5269 222,80.0769 C261.87,76.8569 272.02,78.9269 312,80.0769 C362.28,81.5269 375.4,78.1969 425,86.5769 C507.06,100.4469 591.8926,124.9562 658.7526,146.6362" fill="none" id="spawn-to-downstream" style="stroke:#181818;stroke-width:1;"/><polygon fill="#181818" points="664.46,148.4869,657.1326,141.9059,659.7038,146.9446,654.665,149.5158,664.46,148.4869" style="stroke:#181818;stroke-width:1;"/><text fill="#000000" font-family="sans-serif" font-size="13" lengthAdjust="spacing" textLength="88.1372" x="223" y="67.1438">invoke (exec)</text></g><!--link downstream to spawn--><g class="link" data-entity-1="ent0006" data-entity-2="ent0003" data-link-type="dependency" data-source-line="43" id="lnk9"><path d="M736.97,148.3269 C715.75,124.0769 683.88,93.7069 648,80.0769 C551.19,43.2969 278.2,48.2169 182,86.5769 C146.17,100.8669 118.6752,128.5878 99.5552,151.8978" fill="none" id="downstream-to-spawn" style="stroke:#181818;stroke-width:1;"/><polygon fill="#181818" points="95.75,156.5369,104.5504,152.1151,98.921,152.671,98.3651,147.0415,95.75,156.5369" style="stroke:#181818;stroke-width:1;"/><text fill="#000000" font-family="sans-serif" font-size="13" lengthAdjust="spacing" textLength="144.4155" x="503" y="67.1438">stdout = prompt body</text></g><!--link spawn to launcher--><g class="link" data-entity-1="ent0003" data-entity-2="ent0004" data-link-type="dependency" data-source-line="44" id="lnk10"><path d="M130.03,183.0769 C150.71,183.0769 169.06,183.0769 192.89,183.0769" fill="none" id="spawn-to-launcher" style="stroke:#181818;stroke-width:1;"/><polygon fill="#181818" points="198.89,183.0769,189.89,179.0769,193.89,183.0769,189.89,187.0769,198.89,183.0769" style="stroke:#181818;stroke-width:1;"/><text fill="#000000" font-family="sans-serif" font-size="13" lengthAdjust="spacing" textLength="32.6841" x="148.5" y="176.1438">write</text></g><!--link launcher to workmux--><g class="link" data-entity-1="ent0004" data-entity-2="ent0007" data-link-type="dependency" data-source-line="45" id="lnk11"><path d="M325.45,148.3869 C343.94,122.0769 373.25,87.9169 409,72.5769 C444.94,57.1469 457.89,71.8869 497,72.5769 C585.71,74.1369 817.97,44.3569 896,86.5769 C923.76,101.5969 940.1981,128.0272 950.9081,151.0372" fill="none" id="launcher-to-workmux" style="stroke:#181818;stroke-width:1;"/><polygon fill="#181818" points="953.44,156.4769,953.2686,146.6295,951.3301,151.9438,946.0158,150.0053,953.44,156.4769" style="stroke:#181818;stroke-width:1;"/><text fill="#000000" font-family="monospace" font-size="13" lengthAdjust="spacing" textLength="86.0933" x="410" y="59.6438">workmux&#160;add</text><text fill="#000000" font-family="sans-serif" font-size="13" lengthAdjust="spacing" textLength="81.4341" x="412.3296" y="74.7766">--prompt-file</text></g><?plantuml-src TPHBRjim48RtEiL0NZW1AjjeKYD8KoyIjAkYcxQhfa36uiWYB946ILa9YW8zH4_OatH8Kv7iA39WICEVtxmudCAtaY3NoXdC7QnremIQ9rYJQuaKxB4Hj9TLHTbQh-MUZ2L09OOBUKF95D31hLw3tM6hPlurYdMhB3XsyXaRbPTauCn_5R8YQ8rqZhqu3KBQhQSmkkG_4jxOQhEjcyVpzoVkUgWbLkwChdTkQaCUfDoCGJ6jGcuQmnBXTpX3MCE_Ft_Xno7CtlgJnNNjlKl5ktjtCwVhwWq8Ah2f73pizu3MoesgsL4M73ww1zu5Tzy_1hRi8cDVw1ZMbZ8lWysr6k8M2pKHHveuwRWINpcFx917tmrFwwi-For2rwmaiLkfTcZOeIsHav9g0mLMbWOhngllj57SWUN07ZFxn4w_OCrnexAP9IEB8NU7-HOt1ByIW5j-tqHSfGrCYal_yolQ23BHUXMUvFSGOoXtg3RLAEZcvZdPrGfW8XQqB1R7s1EDVoPlSObNxyPuNALEnJfQYk8bxqWJT4kyV8M7nic2EnCsJ0eiBkW5xqWJUEl55LxW68_F0Hc5LUGj_E-KTwG9lBwmNLVIiJ5DGutxYgVpSEXJ67tG7aRty7LKvcDADyRtQcPpWoulvrKqPJTIh6QrI3sjCyAm9Ay5pKru4UxefDshiv7PZMVuF3WUZ7hihlSw0CTR9OZZEmphp0UshqIs6WAlUT3tUajmHe-KdoU39HOEjbs3TK8t3Zx4sucdLJoTW9zBvFN-BgHaO6915rqGf5tWW4AawRtAueMH-Riq-Gy0?></g></svg>