<?plantuml 1.2026.2?><svg xmlns="http://www.w3.org/2000/svg" xmlns:xlink="http://www.w3.org/1999/xlink" contentStyleType="text/css" data-diagram-type="STATE" height="1060px" preserveAspectRatio="none" style="width:905px;height:1060px;background:#FFFFFF;" version="1.1" viewBox="0 0 905 1060" width="905px" zoomAndPan="magnify"><title>Assignment-based Bob lifecycle</title><defs/><g><g class="title" data-source-line="9"><text fill="#000000" font-family="sans-serif" font-size="14" font-weight="bold" lengthAdjust="spacing" textLength="251.4189" x="320.0141" y="22.9951">Assignment-based Bob lifecycle</text></g><g class="entity" data-qualified-name="authored" id="ent0002"><rect fill="#F1F1F1" height="52.5938" rx="3" ry="3" style="stroke:#181818;stroke-width:0.5;" width="128.835" x="613.56" y="140.2969"/><line style="stroke:#181818;stroke-width:0.5;" x1="613.56" x2="742.395" y1="182.8906" y2="182.8906"/><text fill="#000000" font-family="sans-serif" font-size="14" lengthAdjust="spacing" textLength="64.6338" x="623.56" y="158.292">Authored</text><text fill="#000000" font-family="sans-serif" font-size="14" lengthAdjust="spacing" textLength="108.835" x="623.56" y="174.5889">(in pickup pool)</text></g><g class="entity" data-qualified-name="spawned" id="ent0003"><rect fill="#F1F1F1" height="52.5938" rx="3" ry="3" style="stroke:#181818;stroke-width:0.5;" width="165.8379" x="468.06" y="285.2969"/><line style="stroke:#181818;stroke-width:0.5;" x1="468.06" x2="633.8979" y1="327.8906" y2="327.8906"/><text fill="#000000" font-family="sans-serif" font-size="14" lengthAdjust="spacing" textLength="64.1758" x="478.06" y="303.292">Spawned</text><text fill="#000000" font-family="sans-serif" font-size="14" lengthAdjust="spacing" textLength="145.8379" x="478.06" y="319.5889">(substrate allocated)</text></g><g class="entity" data-qualified-name="claimed" id="ent0004"><rect fill="#F1F1F1" height="52.5938" rx="3" ry="3" style="stroke:#181818;stroke-width:0.5;" width="138.46" x="199.06" y="430.2969"/><line style="stroke:#181818;stroke-width:0.5;" x1="199.06" x2="337.52" y1="472.8906" y2="472.8906"/><text fill="#000000" font-family="sans-serif" font-size="14" lengthAdjust="spacing" textLength="57.2715" x="209.06" y="448.292">Claimed</text><text fill="#000000" font-family="sans-serif" font-size="14" lengthAdjust="spacing" textLength="118.46" x="209.06" y="464.5889">(claim complete)</text></g><g class="entity" data-qualified-name="working" id="ent0005"><rect fill="#F1F1F1" height="50" rx="3" ry="3" style="stroke:#181818;stroke-width:0.5;" width="77.9209" x="229.06" y="575.2969"/><line style="stroke:#181818;stroke-width:0.5;" x1="229.06" x2="306.9809" y1="601.5938" y2="601.5938"/><text fill="#000000" font-family="sans-serif" font-size="14" lengthAdjust="spacing" textLength="57.9209" x="239.06" y="593.292">Working</text></g><g class="entity" data-qualified-name="materialized" id="ent0006"><rect fill="#F1F1F1" height="52.5938" rx="3" ry="3" style="stroke:#181818;stroke-width:0.5;" width="143.0879" x="193.56" y="717.2969"/><line style="stroke:#181818;stroke-width:0.5;" x1="193.56" x2="336.6479" y1="759.8906" y2="759.8906"/><text fill="#000000" font-family="sans-serif" font-size="14" lengthAdjust="spacing" textLength="85.6133" x="203.56" y="735.292">Materialized</text><text fill="#000000" font-family="sans-serif" font-size="14" lengthAdjust="spacing" textLength="123.0879" x="203.56" y="751.5889">(parlay watching)</text></g><g class="entity" data-qualified-name="delivered" id="ent0007"><rect fill="#F1F1F1" height="50" rx="3" ry="3" style="stroke:#181818;stroke-width:0.5;" width="87.3271" x="221.56" y="862.2969"/><line style="stroke:#181818;stroke-width:0.5;" x1="221.56" x2="308.8871" y1="888.5938" y2="888.5938"/><text fill="#000000" font-family="sans-serif" font-size="14" lengthAdjust="spacing" textLength="67.3271" x="231.56" y="880.292">Delivered</text></g><g class="entity" data-qualified-name="returned" id="ent0008"><rect fill="#F1F1F1" height="50" rx="3" ry="3" style="stroke:#181818;stroke-width:0.5;" width="84.832" x="392.56" y="718.7969"/><line style="stroke:#181818;stroke-width:0.5;" x1="392.56" x2="477.392" y1="745.0938" y2="745.0938"/><text fill="#000000" font-family="sans-serif" font-size="14" lengthAdjust="spacing" textLength="64.832" x="402.56" y="736.792">Returned</text></g><g class="entity" data-qualified-name="abandoned" id="ent0009"><rect fill="#F1F1F1" height="50" rx="3" ry="3" style="stroke:#181818;stroke-width:0.5;" width="99.7412" x="25.06" y="718.7969"/><line style="stroke:#181818;stroke-width:0.5;" x1="25.06" x2="124.8012" y1="745.0938" y2="745.0938"/><text fill="#000000" font-family="sans-serif" font-size="14" lengthAdjust="spacing" textLength="79.7412" x="35.06" y="736.792">Abandoned</text></g><g class="entity" data-qualified-name="onward" id="ent0010"><rect fill="#F1F1F1" height="50" rx="3" ry="3" style="stroke:#181818;stroke-width:0.5;" width="124.3232" x="406.06" y="1004.2969"/><line style="stroke:#181818;stroke-width:0.5;" x1="406.06" x2="530.3832" y1="1030.5938" y2="1030.5938"/><text fill="#000000" font-family="sans-serif" font-size="14" lengthAdjust="spacing" textLength="104.3232" x="416.06" y="1022.292">Onward fanout</text></g><g class="start_entity" data-qualified-name=".start." data-source-line="25" id="ent0002"><ellipse cx="678.06" cy="53.2969" fill="#222222" rx="10" ry="10" style="stroke:#222222;stroke-width:1;"/></g><g class="end_entity" data-qualified-name=".end." data-source-line="39" id="ent0015"><ellipse cx="180.06" cy="1029.2969" fill="none" rx="11" ry="11" style="stroke:#222222;stroke-width:1;"/><ellipse cx="180.06" cy="1029.2969" fill="#222222" rx="6" ry="6" style="stroke:#222222;stroke-width:1;"/></g><!--link *start* to authored--><g class="link" data-entity-1="ent0002" data-entity-2="ent0002" data-link-type="dependency" data-source-line="25" id="lnk3"><path d="M678.06,63.4169 C678.06,79.9569 678.06,109.4469 678.06,133.9669" fill="none" id="*start*-to-authored" style="stroke:#181818;stroke-width:1;"/><polygon fill="#181818" points="678.06,139.9669,682.06,130.9669,678.06,134.9669,674.06,130.9669,678.06,139.9669" style="stroke:#181818;stroke-width:1;"/><text fill="#000000" font-family="monospace" font-size="13" lengthAdjust="spacing" textLength="39.1333" x="679.06" y="106.3638">/file</text><text fill="#000000" font-family="sans-serif" font-size="13" lengthAdjust="spacing" textLength="13.2983" x="722.3256" y="106.3638">or</text><text fill="#000000" font-family="monospace" font-size="13" lengthAdjust="spacing" textLength="70.4399" x="739.7563" y="106.3638">/delegate</text></g><!--link authored to spawned--><g class="link" data-entity-1="ent0002" data-entity-2="ent0003" data-link-type="dependency" data-source-line="26" id="lnk4"><path d="M655.35,193.3669 C632.38,219.2269 601.0347,254.5211 577.9747,280.4811" fill="none" id="authored-to-spawned" style="stroke:#181818;stroke-width:1;"/><polygon fill="#181818" points="573.99,284.9669,582.9575,280.8946,577.3106,281.2287,576.9765,275.5817,573.99,284.9669" style="stroke:#181818;stroke-width:1;"/><text fill="#000000" font-family="monospace" font-size="13" lengthAdjust="spacing" textLength="46.96" x="652.5871" y="236.3638">/spawn</text><text fill="#000000" font-family="sans-serif" font-size="13" lengthAdjust="spacing" textLength="18.3701" x="627.06" y="251.4966">(or</text><text fill="#000000" font-family="monospace" font-size="13" lengthAdjust="spacing" textLength="70.4399" x="649.5624" y="251.4966">/delegate</text><text fill="#000000" font-family="sans-serif" font-size="13" lengthAdjust="spacing" textLength="5.0718" x="720.0024" y="251.4966">)</text></g><!--link spawned to claimed--><g class="link" data-entity-1="ent0003" data-entity-2="ent0004" data-link-type="dependency" data-source-line="27" id="lnk5"><path d="M467.82,332.0169 C437.58,340.7969 403.8,352.7569 375.06,368.2969 C344.44,384.8369 318.5444,406.5996 298.0544,425.9296" fill="none" id="spawned-to-claimed" style="stroke:#181818;stroke-width:1;"/><polygon fill="#181818" points="293.69,430.0469,302.9814,426.7805,297.327,426.6158,297.4917,420.9613,293.69,430.0469" style="stroke:#181818;stroke-width:1;"/><text fill="#000000" font-family="monospace" font-size="13" lengthAdjust="spacing" textLength="148.7065" x="376.06" y="381.3638">vv&#160;assignment-claim</text><text fill="#000000" font-family="sans-serif" font-size="13" lengthAdjust="spacing" textLength="103.4414" x="398.6926" y="396.4966">(first-turn body)</text></g><!--link claimed to working--><g class="link" data-entity-1="ent0004" data-entity-2="ent0005" data-link-type="dependency" data-source-line="28" id="lnk6"><path d="M268.06,483.4169 C268.06,509.5469 268.06,543.7569 268.06,569.2769" fill="none" id="claimed-to-working" style="stroke:#181818;stroke-width:1;"/><polygon fill="#181818" points="268.06,575.2769,272.06,566.2769,268.06,570.2769,264.06,566.2769,268.06,575.2769" style="stroke:#181818;stroke-width:1;"/><text fill="#000000" font-family="sans-serif" font-size="13" lengthAdjust="spacing" textLength="72.3823" x="287.7316" y="526.3638">Bob begins</text><text fill="#000000" font-family="sans-serif" font-size="13" lengthAdjust="spacing" textLength="109.7256" x="269.06" y="541.4966">the Route's work</text></g><!--link working to materialized--><g class="link" data-entity-1="ent0005" data-entity-2="ent0006" data-link-type="dependency" data-source-line="29" id="lnk7"><path d="M264.8,625.4469 C263.69,634.7569 262.6,645.5069 262.06,655.2969 C260.9,676.0869 261.4521,693.6994 262.5821,711.1394" fill="none" id="working-to-materialized" style="stroke:#181818;stroke-width:1;"/><polygon fill="#181818" points="262.97,717.1269,266.3797,707.8871,262.6467,712.1373,258.3964,708.4043,262.97,717.1269" style="stroke:#181818;stroke-width:1;"/><text fill="#000000" font-family="monospace" font-size="13" lengthAdjust="spacing" textLength="62.6133" x="263.06" y="675.8638">/realize</text></g><!--link materialized to delivered--><g class="link" data-entity-1="ent0006" data-entity-2="ent0007" data-link-type="dependency" data-source-line="30" id="lnk8"><path d="M265.06,770.4169 C265.06,796.5469 265.06,830.7569 265.06,856.2769" fill="none" id="materialized-to-delivered" style="stroke:#181818;stroke-width:1;"/><polygon fill="#181818" points="265.06,862.2769,269.06,853.2769,265.06,857.2769,261.06,853.2769,265.06,862.2769" style="stroke:#181818;stroke-width:1;"/><text fill="#000000" font-family="monospace" font-size="13" lengthAdjust="spacing" textLength="148.7065" x="266.06" y="813.3638">/closeout&#160;delivered</text><text fill="#000000" font-family="sans-serif" font-size="13" lengthAdjust="spacing" textLength="81.6563" x="299.5851" y="828.4966">(PR merged)</text></g><!--link working to returned--><g class="link" data-entity-1="ent0005" data-entity-2="ent0008" data-link-type="dependency" data-source-line="31" id="lnk9"><path d="M295.88,625.4269 C306.59,634.7369 318.91,645.4869 330.06,655.2969 C346.13,669.4369 349.71,673.4769 366.06,687.2969 C378.38,697.7169 387.5117,705.1825 399.5317,714.7825" fill="none" id="working-to-returned" style="stroke:#181818;stroke-width:1;"/><polygon fill="#181818" points="404.22,718.5269,399.6839,709.7848,400.3131,715.4066,394.6914,716.0358,404.22,718.5269" style="stroke:#181818;stroke-width:1;"/><text fill="#000000" font-family="monospace" font-size="13" lengthAdjust="spacing" textLength="140.8799" x="367.06" y="668.3638">/closeout&#160;returned</text><text fill="#000000" font-family="sans-serif" font-size="13" lengthAdjust="spacing" textLength="119.8057" x="377.5971" y="683.4966">(stopped partway)</text></g><!--link working to abandoned--><g class="link" data-entity-1="ent0005" data-entity-2="ent0009" data-link-type="dependency" data-source-line="32" id="lnk10"><path d="M228.74,615.9769 C219.98,619.1369 210.73,622.3969 202.06,625.2969 C158.86,639.7469 136.63,623.4569 104.06,655.2969 C87,671.9669 80.8591,692.9316 77.9591,712.5116" fill="none" id="working-to-abandoned" style="stroke:#181818;stroke-width:1;"/><polygon fill="#181818" points="77.08,718.4469,82.3554,710.13,77.8126,713.5008,74.4418,708.9579,77.08,718.4469" style="stroke:#181818;stroke-width:1;"/><text fill="#000000" font-family="monospace" font-size="13" lengthAdjust="spacing" textLength="148.7065" x="105.06" y="668.3638">/closeout&#160;abandoned</text><text fill="#000000" font-family="sans-serif" font-size="13" lengthAdjust="spacing" textLength="146.4531" x="106.1867" y="683.4966">(Assignment obsolete)</text></g><!--link claimed to abandoned--><g class="link" data-entity-1="ent0004" data-entity-2="ent0009" data-link-type="dependency" data-source-line="33" id="lnk11"><path d="M198.78,471.8569 C143.54,487.0969 69.74,517.4569 34.06,575.2969 C6,620.7769 33.8291,679.1732 55.1691,713.4532" fill="none" id="claimed-to-abandoned" style="stroke:#181818;stroke-width:1;"/><polygon fill="#181818" points="58.34,718.5469,56.9794,708.7925,55.6976,714.3022,50.1879,713.0203,58.34,718.5469" style="stroke:#181818;stroke-width:1;"/><text fill="#000000" font-family="monospace" font-size="13" lengthAdjust="spacing" textLength="148.7065" x="48.6281" y="597.3638">/closeout&#160;abandoned</text><text fill="#000000" font-family="sans-serif" font-size="13" lengthAdjust="spacing" textLength="175.8428" x="35.06" y="612.4966">(without entering Working)</text></g><!--link delivered to onward--><g class="link" data-entity-1="ent0007" data-entity-2="ent0010" data-link-type="dependency" data-source-line="34" id="lnk12"><path d="M299.95,912.3669 C337.13,938.0069 390.7309,974.9702 427.9909,1000.6702" fill="none" id="delivered-to-onward" style="stroke:#181818;stroke-width:1;"/><polygon fill="#181818" points="432.93,1004.0769,427.7925,995.6741,428.8141,1001.238,423.2503,1002.2595,432.93,1004.0769" style="stroke:#181818;stroke-width:1;"/><text fill="#000000" font-family="monospace" font-size="13" lengthAdjust="spacing" textLength="54.7866" x="386.06" y="955.3638">/onward</text><text fill="#000000" font-family="sans-serif" font-size="13" lengthAdjust="spacing" textLength="42.0723" x="444.9789" y="955.3638">fanout</text><text fill="#000000" font-family="sans-serif" font-size="13" lengthAdjust="spacing" textLength="62.8291" x="405.1411" y="970.4966">(optional)</text></g><!--link returned to authored--><g class="link" data-entity-1="ent0008" data-entity-2="ent0002" data-link-type="dependency" data-source-line="36" id="lnk13"><path d="M477.73,741.6769 C560.59,738.6269 739.03,727.4369 783.06,687.2969 C812.21,660.7169 805.06,640.7469 805.06,601.2969 C805.06,310.7969 805.06,310.7969 805.06,310.7969 C805.06,259.6669 764.0659,221.6644 727.4359,196.8244" fill="none" id="returned-to-authored" style="stroke:#181818;stroke-width:1;"/><polygon fill="#181818" points="722.47,193.4569,727.6738,201.8187,726.6082,196.2631,732.1638,195.1976,722.47,193.4569" style="stroke:#181818;stroke-width:1;"/><text fill="#000000" font-family="sans-serif" font-size="13" lengthAdjust="spacing" textLength="91.3872" x="806.06" y="461.3638">re-enters pool</text></g><!--link onward to spawned--><g class="link" data-entity-1="ent0010" data-entity-2="ent0003" data-link-type="dependency" data-source-line="37" id="lnk14"><path d="M493.41,1004.0469 C517.82,977.9769 551.06,934.0669 551.06,888.2969 C551.06,455.7969 551.06,455.7969 551.06,455.7969 C551.06,414.7069 551.06,372.9769 551.06,344.3669" fill="none" id="onward-to-spawned" style="stroke:#181818;stroke-width:1;"/><polygon fill="#181818" points="551.06,338.3669,547.06,347.3669,551.06,343.3669,555.06,347.3669,551.06,338.3669" style="stroke:#181818;stroke-width:1;"/><text fill="#000000" font-family="sans-serif" font-size="13" lengthAdjust="spacing" textLength="229.1377" x="552.06" y="675.8638">downstream Assignment picked up</text></g><!--link abandoned to *end*--><g class="link" data-entity-1="ent0009" data-entity-2="ent0015" data-link-type="dependency" data-source-line="39" id="lnk16"><path d="M84.01,768.9669 C105.98,828.2869 159.7456,973.4706 174.4056,1013.0406" fill="none" id="abandoned-to-*end*" style="stroke:#181818;stroke-width:1;"/><polygon fill="#181818" points="176.49,1018.6669,177.1142,1008.8378,174.753,1013.9783,169.6125,1011.6171,176.49,1018.6669" style="stroke:#181818;stroke-width:1;"/></g><!--link delivered to *end*--><g class="link" data-entity-1="ent0007" data-entity-2="ent0015" data-link-type="dependency" data-source-line="40" id="lnk17"><path d="M250.44,912.3669 C231.17,944.1069 201.3134,993.2778 188.4934,1014.3978" fill="none" id="delivered-to-*end*" style="stroke:#181818;stroke-width:1;"/><polygon fill="#181818" points="185.38,1019.5269,193.4694,1013.9089,187.9745,1015.2527,186.6307,1009.7578,185.38,1019.5269" style="stroke:#181818;stroke-width:1;"/></g><?plantuml-src ZLLDRzim3BthLn2-j1cIzBP3KHJeMkos3xG3TbXte6Kw5Y9BXYJ7otxzADcExIKhbaDYI-yzYUGZSmNVAWAjIf97gGbi2MZWmNkrCpMPiCdHKm4VRBw6qjaQi0sLTShi85JEjhiAWXLN4CZLoc1GrcpXoTQep4RJWVGj-80xye2Em63DOigm53zrrktXO2NchKPtNBCC5H7A0BzNMiE1NEwtyDBcFZWC10K5LDh3TUG6H-JNqA29FnfR8ojoh58gJNx5WHJ0DBad1pN92esIJ9Mj3nn8gKWNaQVC7iAnIGo-esq3Pu5LlBGDRU5HsvW1ZY8CKGonQg1Vafe0pnHQPwXOGrSfMO6Z3MUEdESK4GirIkxR1XfhzJfTwecquj0cHer7A3dlyUo3GhYnfaDNR8K8Ad1LBjLZAfeGd2tJ8ESKV8M5xM9vIjIUPZjSB5CyMhweW_UpzO9AR7NuQ4tup4K1ZyPlF3bLicuC6hA7L7CgNiqrbsOMpYg3z44_-8AAaVFIO6SInP-gXrfpjGCLaSSStsD6ogD6LIUAZ4yWRTre2ZIU4YconuoKxsm33dO4d7-OqlMOaVA9lvr2hNwdepW9chFVOP0Le_WifjGppCWx5Itxzr75Y86xkz4bz_UZmkYJx8tBkW435nKUShQFDM_U0KVCHOKloLZHREorxB92RpuXVhpxEQrlDlUd6gU5MyYoczXfMGRMnHUEddPyIfQ91J9IXrB3H4qhMSOb-9kz4Wjqf0zbd-Y70z_qr1HfEscLolcmYJc4t1R7bLWmezHWXr4gTb9EEsNyg-5sXMVE2rtrhX4BR2JFZT67uIYzSSoBlGYUt336BECiYKr-sagN_lhCyydjk2_EJvmCSIOoRYKDdcbDmp3sS-ZmU45fCiQPqcahIKtJ1cpkRMh1ypp-jrods0kyccPYlD7Gj2knI53Kx9q7CvVqAsonth7HBKtyaq6z4cAHcmi6dGPn75PYeNx1b3mu3Kygug4uIq4STunf6o4M8KS1xf3p8EBY7m00?></g></svg>