<?plantuml 1.2026.2?><svg xmlns="http://www.w3.org/2000/svg" xmlns:xlink="http://www.w3.org/1999/xlink" contentStyleType="text/css" data-diagram-type="STATE" height="1060px" preserveAspectRatio="none" style="width:911px;height:1060px;background:#FFFFFF;" version="1.1" viewBox="0 0 911 1060" width="911px" zoomAndPan="magnify"><title>Premise-based Bob lifecycle</title><defs/><g><g class="title" data-source-line="9"><text fill="#000000" font-family="sans-serif" font-size="14" font-weight="bold" lengthAdjust="spacing" textLength="222.2637" x="337.5918" y="22.9951">Premise-based Bob lifecycle</text></g><g class="entity" data-qualified-name="authored" id="ent0002"><rect fill="#F1F1F1" height="52.5938" rx="3" ry="3" style="stroke:#181818;stroke-width:0.5;" width="128.835" x="631.56" y="140.2969"/><line style="stroke:#181818;stroke-width:0.5;" x1="631.56" x2="760.395" y1="182.8906" y2="182.8906"/><text fill="#000000" font-family="sans-serif" font-size="14" lengthAdjust="spacing" textLength="64.6338" x="641.56" y="158.292">Authored</text><text fill="#000000" font-family="sans-serif" font-size="14" lengthAdjust="spacing" textLength="108.835" x="641.56" y="174.5889">(in pickup pool)</text></g><g class="entity" data-qualified-name="spawned" id="ent0003"><rect fill="#F1F1F1" height="52.5938" rx="3" ry="3" style="stroke:#181818;stroke-width:0.5;" width="165.8379" x="499.06" y="285.2969"/><line style="stroke:#181818;stroke-width:0.5;" x1="499.06" x2="664.8979" y1="327.8906" y2="327.8906"/><text fill="#000000" font-family="sans-serif" font-size="14" lengthAdjust="spacing" textLength="64.1758" x="509.06" y="303.292">Spawned</text><text fill="#000000" font-family="sans-serif" font-size="14" lengthAdjust="spacing" textLength="145.8379" x="509.06" y="319.5889">(substrate allocated)</text></g><g class="entity" data-qualified-name="claimed" id="ent0004"><rect fill="#F1F1F1" height="52.5938" rx="3" ry="3" style="stroke:#181818;stroke-width:0.5;" width="138.46" x="199.06" y="430.2969"/><line style="stroke:#181818;stroke-width:0.5;" x1="199.06" x2="337.52" y1="472.8906" y2="472.8906"/><text fill="#000000" font-family="sans-serif" font-size="14" lengthAdjust="spacing" textLength="57.2715" x="209.06" y="448.292">Claimed</text><text fill="#000000" font-family="sans-serif" font-size="14" lengthAdjust="spacing" textLength="118.46" x="209.06" y="464.5889">(claim complete)</text></g><g class="entity" data-qualified-name="working" id="ent0005"><rect fill="#F1F1F1" height="50" rx="3" ry="3" style="stroke:#181818;stroke-width:0.5;" width="77.9209" x="229.06" y="575.2969"/><line style="stroke:#181818;stroke-width:0.5;" x1="229.06" x2="306.9809" y1="601.5938" y2="601.5938"/><text fill="#000000" font-family="sans-serif" font-size="14" lengthAdjust="spacing" textLength="57.9209" x="239.06" y="593.292">Working</text></g><g class="entity" data-qualified-name="materialized" id="ent0006"><rect fill="#F1F1F1" height="52.5938" rx="3" ry="3" style="stroke:#181818;stroke-width:0.5;" width="143.0879" x="193.56" y="717.2969"/><line style="stroke:#181818;stroke-width:0.5;" x1="193.56" x2="336.6479" y1="759.8906" y2="759.8906"/><text fill="#000000" font-family="sans-serif" font-size="14" lengthAdjust="spacing" textLength="85.6133" x="203.56" y="735.292">Materialized</text><text fill="#000000" font-family="sans-serif" font-size="14" lengthAdjust="spacing" textLength="123.0879" x="203.56" y="751.5889">(parlay watching)</text></g><g class="entity" data-qualified-name="delivered" id="ent0007"><rect fill="#F1F1F1" height="50" rx="3" ry="3" style="stroke:#181818;stroke-width:0.5;" width="87.3271" x="221.56" y="862.2969"/><line style="stroke:#181818;stroke-width:0.5;" x1="221.56" x2="308.8871" y1="888.5938" y2="888.5938"/><text fill="#000000" font-family="sans-serif" font-size="14" lengthAdjust="spacing" textLength="67.3271" x="231.56" y="880.292">Delivered</text></g><g class="entity" data-qualified-name="returned" id="ent0008"><rect fill="#F1F1F1" height="50" rx="3" ry="3" style="stroke:#181818;stroke-width:0.5;" width="84.832" x="407.56" y="718.7969"/><line style="stroke:#181818;stroke-width:0.5;" x1="407.56" x2="492.392" y1="745.0938" y2="745.0938"/><text fill="#000000" font-family="sans-serif" font-size="14" lengthAdjust="spacing" textLength="64.832" x="417.56" y="736.792">Returned</text></g><g class="entity" data-qualified-name="abandoned" id="ent0009"><rect fill="#F1F1F1" height="50" rx="3" ry="3" style="stroke:#181818;stroke-width:0.5;" width="99.7412" x="25.06" y="718.7969"/><line style="stroke:#181818;stroke-width:0.5;" x1="25.06" x2="124.8012" y1="745.0938" y2="745.0938"/><text fill="#000000" font-family="sans-serif" font-size="14" lengthAdjust="spacing" textLength="79.7412" x="35.06" y="736.792">Abandoned</text></g><g class="entity" data-qualified-name="onward" id="ent0010"><rect fill="#F1F1F1" height="50" rx="3" ry="3" style="stroke:#181818;stroke-width:0.5;" width="124.3232" x="429.06" y="1004.2969"/><line style="stroke:#181818;stroke-width:0.5;" x1="429.06" x2="553.3832" y1="1030.5938" y2="1030.5938"/><text fill="#000000" font-family="sans-serif" font-size="14" lengthAdjust="spacing" textLength="104.3232" x="439.06" y="1022.292">Onward fanout</text></g><g class="start_entity" data-qualified-name=".start." data-source-line="25" id="ent0002"><ellipse cx="696.06" cy="53.2969" fill="#222222" rx="10" ry="10" style="stroke:#222222;stroke-width:1;"/></g><g class="end_entity" data-qualified-name=".end." data-source-line="39" id="ent0015"><ellipse cx="180.06" cy="1029.2969" fill="none" rx="11" ry="11" style="stroke:#222222;stroke-width:1;"/><ellipse cx="180.06" cy="1029.2969" fill="#222222" rx="6" ry="6" style="stroke:#222222;stroke-width:1;"/></g><!--link *start* to authored--><g class="link" data-entity-1="ent0002" data-entity-2="ent0002" data-link-type="dependency" data-source-line="25" id="lnk3"><path d="M696.06,63.4169 C696.06,79.9569 696.06,109.4469 696.06,133.9669" fill="none" id="*start*-to-authored" style="stroke:#181818;stroke-width:1;"/><polygon fill="#181818" points="696.06,139.9669,700.06,130.9669,696.06,134.9669,692.06,130.9669,696.06,139.9669" style="stroke:#181818;stroke-width:1;"/><text fill="#000000" font-family="monospace" font-size="13" lengthAdjust="spacing" textLength="39.1333" x="697.06" y="106.3638">/file</text><text fill="#000000" font-family="sans-serif" font-size="13" lengthAdjust="spacing" textLength="13.2983" x="740.3256" y="106.3638">or</text><text fill="#000000" font-family="monospace" font-size="13" lengthAdjust="spacing" textLength="70.4399" x="757.7563" y="106.3638">/delegate</text></g><!--link authored to spawned--><g class="link" data-entity-1="ent0002" data-entity-2="ent0003" data-link-type="dependency" data-source-line="26" id="lnk4"><path d="M675.67,193.3669 C655.05,219.2269 627.0807,254.3157 606.3807,280.2757" fill="none" id="authored-to-spawned" style="stroke:#181818;stroke-width:1;"/><polygon fill="#181818" points="602.64,284.9669,611.3785,280.4239,605.7572,281.0575,605.1235,275.4363,602.64,284.9669" style="stroke:#181818;stroke-width:1;"/><text fill="#000000" font-family="monospace" font-size="13" lengthAdjust="spacing" textLength="46.96" x="676.5871" y="236.3638">/spawn</text><text fill="#000000" font-family="sans-serif" font-size="13" lengthAdjust="spacing" textLength="18.3701" x="651.06" y="251.4966">(or</text><text fill="#000000" font-family="monospace" font-size="13" lengthAdjust="spacing" textLength="70.4399" x="673.5624" y="251.4966">/delegate</text><text fill="#000000" font-family="sans-serif" font-size="13" lengthAdjust="spacing" textLength="5.0718" x="744.0024" y="251.4966">)</text></g><!--link spawned to claimed--><g class="link" data-entity-1="ent0003" data-entity-2="ent0004" data-link-type="dependency" data-source-line="27" id="lnk5"><path d="M504.5,338.3869 C480.05,347.1269 453.15,357.4569 429.06,368.2969 C387.86,386.8369 348.022,408.7196 316.082,427.2196" fill="none" id="spawned-to-claimed" style="stroke:#181818;stroke-width:1;"/><polygon fill="#181818" points="310.89,430.2269,320.6828,429.1773,315.2166,427.7208,316.6731,422.2547,310.89,430.2269" style="stroke:#181818;stroke-width:1;"/><text fill="#000000" font-family="monospace" font-size="13" lengthAdjust="spacing" textLength="125.2266" x="430.06" y="381.3638">vv&#160;premise-claim</text><text fill="#000000" font-family="sans-serif" font-size="13" lengthAdjust="spacing" textLength="103.4414" x="440.9526" y="396.4966">(first-turn body)</text></g><!--link claimed to working--><g class="link" data-entity-1="ent0004" data-entity-2="ent0005" data-link-type="dependency" data-source-line="28" id="lnk6"><path d="M268.06,483.4169 C268.06,509.5469 268.06,543.7569 268.06,569.2769" fill="none" id="claimed-to-working" style="stroke:#181818;stroke-width:1;"/><polygon fill="#181818" points="268.06,575.2769,272.06,566.2769,268.06,570.2769,264.06,566.2769,268.06,575.2769" style="stroke:#181818;stroke-width:1;"/><text fill="#000000" font-family="sans-serif" font-size="13" lengthAdjust="spacing" textLength="72.3823" x="287.7316" y="526.3638">Bob begins</text><text fill="#000000" font-family="sans-serif" font-size="13" lengthAdjust="spacing" textLength="109.7256" x="269.06" y="541.4966">the Route's work</text></g><!--link working to materialized--><g class="link" data-entity-1="ent0005" data-entity-2="ent0006" data-link-type="dependency" data-source-line="29" id="lnk7"><path d="M264.8,625.4469 C263.69,634.7569 262.6,645.5069 262.06,655.2969 C260.9,676.0869 261.4521,693.6994 262.5821,711.1394" fill="none" id="working-to-materialized" style="stroke:#181818;stroke-width:1;"/><polygon fill="#181818" points="262.97,717.1269,266.3797,707.8871,262.6467,712.1373,258.3964,708.4043,262.97,717.1269" style="stroke:#181818;stroke-width:1;"/><text fill="#000000" font-family="monospace" font-size="13" lengthAdjust="spacing" textLength="93.9199" x="263.06" y="675.8638">/materialize</text></g><!--link materialized to delivered--><g class="link" data-entity-1="ent0006" data-entity-2="ent0007" data-link-type="dependency" data-source-line="30" id="lnk8"><path d="M265.06,770.4169 C265.06,796.5469 265.06,830.7569 265.06,856.2769" fill="none" id="materialized-to-delivered" style="stroke:#181818;stroke-width:1;"/><polygon fill="#181818" points="265.06,862.2769,269.06,853.2769,265.06,857.2769,261.06,853.2769,265.06,862.2769" style="stroke:#181818;stroke-width:1;"/><text fill="#000000" font-family="monospace" font-size="13" lengthAdjust="spacing" textLength="148.7065" x="266.06" y="813.3638">/closeout&#160;delivered</text><text fill="#000000" font-family="sans-serif" font-size="13" lengthAdjust="spacing" textLength="81.6563" x="299.5851" y="828.4966">(PR merged)</text></g><!--link working to returned--><g class="link" data-entity-1="ent0005" data-entity-2="ent0008" data-link-type="dependency" data-source-line="31" id="lnk9"><path d="M307.44,621.2969 C324.55,630.6969 344.43,642.6169 361.06,655.2969 C374.67,665.6769 401.1971,692.2754 422.7171,714.4054" fill="none" id="working-to-returned" style="stroke:#181818;stroke-width:1;"/><polygon fill="#181818" points="426.9,718.7069,423.4933,709.466,423.4142,715.1223,417.7579,715.0432,426.9,718.7069" style="stroke:#181818;stroke-width:1;"/><text fill="#000000" font-family="monospace" font-size="13" lengthAdjust="spacing" textLength="140.8799" x="396.06" y="668.3638">/closeout&#160;returned</text><text fill="#000000" font-family="sans-serif" font-size="13" lengthAdjust="spacing" textLength="119.8057" x="406.5971" y="683.4966">(stopped partway)</text></g><!--link working to abandoned--><g class="link" data-entity-1="ent0005" data-entity-2="ent0009" data-link-type="dependency" data-source-line="32" id="lnk10"><path d="M228.74,615.9769 C219.98,619.1369 210.73,622.3969 202.06,625.2969 C158.86,639.7469 136.63,623.4569 104.06,655.2969 C87,671.9669 80.8591,692.9316 77.9591,712.5116" fill="none" id="working-to-abandoned" style="stroke:#181818;stroke-width:1;"/><polygon fill="#181818" points="77.08,718.4469,82.3554,710.13,77.8126,713.5008,74.4418,708.9579,77.08,718.4469" style="stroke:#181818;stroke-width:1;"/><text fill="#000000" font-family="monospace" font-size="13" lengthAdjust="spacing" textLength="148.7065" x="105.06" y="668.3638">/closeout&#160;abandoned</text><text fill="#000000" font-family="sans-serif" font-size="13" lengthAdjust="spacing" textLength="122.1416" x="118.3425" y="683.4966">(Premise obsolete)</text></g><!--link claimed to abandoned--><g class="link" data-entity-1="ent0004" data-entity-2="ent0009" data-link-type="dependency" data-source-line="33" id="lnk11"><path d="M198.78,471.8569 C143.54,487.0969 69.74,517.4569 34.06,575.2969 C6,620.7769 33.8291,679.1732 55.1691,713.4532" fill="none" id="claimed-to-abandoned" style="stroke:#181818;stroke-width:1;"/><polygon fill="#181818" points="58.34,718.5469,56.9794,708.7925,55.6976,714.3022,50.1879,713.0203,58.34,718.5469" style="stroke:#181818;stroke-width:1;"/><text fill="#000000" font-family="monospace" font-size="13" lengthAdjust="spacing" textLength="148.7065" x="48.6281" y="597.3638">/closeout&#160;abandoned</text><text fill="#000000" font-family="sans-serif" font-size="13" lengthAdjust="spacing" textLength="175.8428" x="35.06" y="612.4966">(without entering Working)</text></g><!--link delivered to onward--><g class="link" data-entity-1="ent0007" data-entity-2="ent0010" data-link-type="dependency" data-source-line="34" id="lnk12"><path d="M303.91,912.3669 C345.3,938.0069 405.3593,975.2174 446.8493,1000.9174" fill="none" id="delivered-to-onward" style="stroke:#181818;stroke-width:1;"/><polygon fill="#181818" points="451.95,1004.0769,446.4053,995.9371,447.6994,1001.4439,442.1926,1002.7381,451.95,1004.0769" style="stroke:#181818;stroke-width:1;"/><text fill="#000000" font-family="monospace" font-size="13" lengthAdjust="spacing" textLength="54.7866" x="400.06" y="955.3638">/onward</text><text fill="#000000" font-family="sans-serif" font-size="13" lengthAdjust="spacing" textLength="42.0723" x="458.9789" y="955.3638">fanout</text><text fill="#000000" font-family="sans-serif" font-size="13" lengthAdjust="spacing" textLength="62.8291" x="419.1411" y="970.4966">(optional)</text></g><!--link returned to authored--><g class="link" data-entity-1="ent0008" data-entity-2="ent0002" data-link-type="dependency" data-source-line="36" id="lnk13"><path d="M492.57,741.4769 C573.71,738.0869 746.39,726.3569 789.06,687.2969 C818.15,660.6569 811.06,640.7469 811.06,601.2969 C811.06,310.7969 811.06,310.7969 811.06,310.7969 C811.06,261.0969 773.1231,222.5025 739.7631,197.0925" fill="none" id="returned-to-authored" style="stroke:#181818;stroke-width:1;"/><polygon fill="#181818" points="734.99,193.4569,739.7259,202.0923,738.9676,196.4866,744.5734,195.7282,734.99,193.4569" style="stroke:#181818;stroke-width:1;"/><text fill="#000000" font-family="sans-serif" font-size="13" lengthAdjust="spacing" textLength="91.3872" x="812.06" y="461.3638">re-enters pool</text></g><!--link onward to spawned--><g class="link" data-entity-1="ent0010" data-entity-2="ent0003" data-link-type="dependency" data-source-line="37" id="lnk14"><path d="M519.35,1004.0469 C546.06,978.3069 582.06,934.9669 582.06,888.2969 C582.06,455.7969 582.06,455.7969 582.06,455.7969 C582.06,414.7069 582.06,372.9769 582.06,344.3669" fill="none" id="onward-to-spawned" style="stroke:#181818;stroke-width:1;"/><polygon fill="#181818" points="582.06,338.3669,578.06,347.3669,582.06,343.3669,586.06,347.3669,582.06,338.3669" style="stroke:#181818;stroke-width:1;"/><text fill="#000000" font-family="sans-serif" font-size="13" lengthAdjust="spacing" textLength="204.8262" x="583.06" y="675.8638">downstream Premise picked up</text></g><!--link abandoned to *end*--><g class="link" data-entity-1="ent0009" data-entity-2="ent0015" data-link-type="dependency" data-source-line="39" id="lnk16"><path d="M84.01,768.9669 C105.98,828.2869 159.7456,973.4706 174.4056,1013.0406" fill="none" id="abandoned-to-*end*" style="stroke:#181818;stroke-width:1;"/><polygon fill="#181818" points="176.49,1018.6669,177.1142,1008.8378,174.753,1013.9783,169.6125,1011.6171,176.49,1018.6669" style="stroke:#181818;stroke-width:1;"/></g><!--link delivered to *end*--><g class="link" data-entity-1="ent0007" data-entity-2="ent0015" data-link-type="dependency" data-source-line="40" id="lnk17"><path d="M250.44,912.3669 C231.17,944.1069 201.3134,993.2778 188.4934,1014.3978" fill="none" id="delivered-to-*end*" style="stroke:#181818;stroke-width:1;"/><polygon fill="#181818" points="185.38,1019.5269,193.4694,1013.9089,187.9745,1015.2527,186.6307,1009.7578,185.38,1019.5269" style="stroke:#181818;stroke-width:1;"/></g><?plantuml-src ZLN1Rjim3BthAmXVsWn9UzjX60fqBNRRLhG3TjXse6Kw5Y9BXYJ7oxv-b6p5yP8Lyo5nfFUUHFAHkOAl3O5MDSc3r0Is1eGdHwtoj2dHKmKVRBc6sjaMi0-DTSfi8JJEzji6WXLN4CYroc1Grjp0esrHcOscFUbtu0DkoGCw0eCjYod3KlmsMBU3lPLOzXhTOSqoL4Ke0_nEQGrxSgM_WPU-zC5X8AWeeD8UhYCtE2A_XWvD_DBO6zcGOvLQQV8hG5C1q-IE7BGa6pHACbNsFd0WjI9THPuoEmY7BZ7uZhOFd05MyT9sT0CFsiOCS1HXYcAALGFzajG5UARGEqFL6eP6oGOSRSWmo7EAY8Kw9NTz1vsrUfqkzKXQSMWpeyK3r6ZIsNk5S6lDWAww4IAem1KvAyPSBI4uLQP3JYZu1YixnDhKg3sTx72bJFLW-POEtfwiLrHZhyD7Qy9dhWXuD7xZoQcQTMF4KDodWbFrmrnpNKvYMHMG7lIJAQZAd9SE1vCe_bWwr9fB7QYAFERu4PCf3nfLcoWole6qRQSfK3ubKkI8oPHlx04EDWFE7wOC8oPJFl6dKwZLxtGK9q5pwWSCic4KdyMKzWIJUSUA5Vy-gieOUFy-M-JkBYjaanIlNDPD6BYeS5-oTwnvzGwOCHSLlYHNHQUnqOhB2gFpXFZ-vkUyljdS7MkS5jv1KTp6DYiAi2x-uEXfowSKXLWW8tKgDSpKj58KN8A_sIknG4VwLFQPljz3DtL4saj2jN8-R682eRJLOIKMjAWpUI7hn3OgQQkC_s6uKU6Paq9NesN40Xl9fwuOOpXPuQ0N-v4mso47BUCaYIr-t4eNVthcwUIst1ZdfywEE1F9Mqc39rhNCOmD7GOyN52QdN6cTDmQhpDc5cpfRMh0yqJ-jzQWs0cyciPXlCxKiYkno4xK77q79nuPLzXWer-ZLxhu_u9w9SGYCHViES_WEAh4Gls29Nbi6fvJn2Cnnnyd7GFwJeX5l97DpN4UGLpy0m00?></g></svg>